<?xml version="1.0" encoding="UTF-8"?>
<svg xmlns="http://www.w3.org/2000/svg" xmlns:xlink="http://www.w3.org/1999/xlink" width="240pt" height="240pt" viewBox="0 0 240 240" version="1.1">
<g id="surface19563">
<path style=" stroke:none;fill-rule:nonzero;fill:rgb(58.039216%,58.039216%,58.039216%);fill-opacity:1;" d="M 120 20 C 64.773438 20 20 64.773438 20 120 C 20 175.226562 64.773438 220 120 220 C 175.226562 220 220 175.226562 220 120 C 220 64.773438 175.226562 20 120 20 Z M 120 20 "/>
<path style=" stroke:none;fill-rule:nonzero;fill:rgb(100%,100%,100%);fill-opacity:1;" d="M 169.75 75 L 151.019531 170.628906 C 151.019531 170.628906 150.214844 175 144.796875 175 C 141.914062 175 140.429688 173.628906 140.429688 173.628906 L 99.859375 139.964844 L 80.011719 129.960938 L 54.535156 123.183594 C 54.535156 123.183594 50 121.875 50 118.125 C 50 115 54.664062 113.511719 54.664062 113.511719 L 161.246094 71.171875 C 161.238281 71.164062 164.5 69.996094 166.875 70 C 168.335938 70 170 70.625 170 72.5 C 170 73.75 169.75 75 169.75 75 Z M 169.75 75 "/>
<path style=" stroke:none;fill-rule:nonzero;fill:rgb(69.019608%,74.509804%,77.254902%);fill-opacity:1;" d="M 115 152.523438 L 97.871094 169.394531 C 97.871094 169.394531 97.125 169.96875 96.128906 169.996094 C 95.785156 170.003906 95.414062 169.949219 95.035156 169.78125 L 99.855469 139.953125 Z M 115 152.523438 "/>
<path style=" stroke:none;fill-rule:nonzero;fill:rgb(81.176471%,84.705882%,86.27451%);fill-opacity:1;" d="M 149.484375 90.980469 C 148.640625 89.878906 147.078125 89.679688 145.980469 90.515625 L 80 130 C 80 130 90.53125 159.460938 92.136719 164.558594 C 93.746094 169.664062 95.035156 169.785156 95.035156 169.785156 L 99.855469 139.960938 L 149.015625 94.480469 C 150.113281 93.644531 150.320312 92.078125 149.484375 90.980469 Z M 149.484375 90.980469 "/>
</g>
</svg>
