<?xml version="1.0" encoding="UTF-8"?>
<svg width="27px" height="58px" viewBox="0 0 27 58" version="1.1" xmlns="http://www.w3.org/2000/svg" xmlns:xlink="http://www.w3.org/1999/xlink">
    <!-- Generator: Sketch 52.3 (67297) - http://www.bohemiancoding.com/sketch -->
    <title>Fill 73</title>
    <desc>Created with Sketch.</desc>
    <g id="Page-1" stroke="none" stroke-width="1" fill="none" fill-rule="evenodd">
        <g id="Artboard" transform="translate(-37.000000, -283.000000)" fill="#949494">
            <path d="M43.0758063,341 L54.7534556,341 L54.7534556,311.752934 L62.904112,311.752934 L63.771364,301.961054 L54.7534556,301.961054 C54.7534556,301.961054 54.7534556,298.305486 54.7534556,296.384421 C54.7534556,294.075111 55.2173346,293.162479 57.4510128,293.162479 C59.2460228,293.162479 63.771364,293.162479 63.771364,293.162479 L63.771364,283 C63.771364,283 57.1081457,283 55.6837347,283 C46.9935669,283 43.0758063,286.827002 43.0758063,294.153264 C43.0758063,300.534122 43.0758063,301.961054 43.0758063,301.961054 L37,301.961054 L37,311.876467 L43.0758063,311.876467 L43.0758063,341" id="Fill-73"></path>
        </g>
    </g>
</svg>