<?xml version="1.0" encoding="UTF-8"?>
<svg width="66px" height="90px" viewBox="0 0 66 90" version="1.1" xmlns="http://www.w3.org/2000/svg" xmlns:xlink="http://www.w3.org/1999/xlink">
    <!-- Generator: Sketch 52.6 (67491) - http://www.bohemiancoding.com/sketch -->
    <title>arrow_down</title>
    <desc>Created with Sketch.</desc>
    <g id="Logo" stroke="none" stroke-width="1" fill="none" fill-rule="evenodd">
        <g id="colors" transform="translate(-131.000000, -105.000000)" fill="#E1DCFF">
            <g id="arrow_down" transform="translate(131.000000, 105.000000)">
                <path d="M33,89.5 C31.2,89.5 29.8,88.1 29.8,86.3 L29.8,3.7 C29.8,1.9 31.2,0.5 33,0.5 C34.8,0.5 36.2,1.9 36.2,3.7 L36.2,86.3 C36.2,88.1 34.7,89.5 33,89.5 Z" id="Path"></path>
                <path d="M32.5,89.5 C31.7,89.5 30.9,89.2 30.2,88.6 L1,59.4 C-0.2,58.2 -0.2,56.1 1,54.9 C2.2,53.7 4.3,53.7 5.5,54.9 L34.7,84.1 C35.9,85.3 35.9,87.4 34.7,88.6 C34.2,89.2 33.3,89.5 32.5,89.5 Z" id="Path"></path>
                <path d="M33.4,89.5 C32.6,89.5 31.8,89.2 31.1,88.6 C29.9,87.4 29.9,85.3 31.1,84.1 L60.3,54.9 C61.5,53.7 63.6,53.7 64.8,54.9 C66,56.1 66,58.2 64.8,59.4 L35.6,88.6 C35.1,89.2 34.2,89.5 33.4,89.5 Z" id="Path"></path>
            </g>
        </g>
    </g>
</svg>