<?xml version="1.0" encoding="UTF-8"?>
<svg width="56px" height="57px" viewBox="0 0 56 57" version="1.1" xmlns="http://www.w3.org/2000/svg" xmlns:xlink="http://www.w3.org/1999/xlink">
    <!-- Generator: Sketch 52.3 (67297) - http://www.bohemiancoding.com/sketch -->
    <title>Group</title>
    <desc>Created with Sketch.</desc>
    <g id="Page-1" stroke="none" stroke-width="1" fill="none" fill-rule="evenodd">
        <g id="Artboard" transform="translate(-95.000000, -285.000000)" fill="#949494">
            <g id="Group" transform="translate(95.000000, 285.000000)">
                <path d="M1,56.3514286 L1,20 L12.2542857,20 L12.2542857,56.3514286 L1,56.3514286 Z M6.65428571,13.4171429 C2.97714286,13.4171429 -4.08562073e-14,10.4085714 -4.08562073e-14,6.70571429 C-4.08562073e-14,3.00285714 2.97714286,1.42108547e-14 6.65428571,1.42108547e-14 C10.3285714,1.42108547e-14 13.3085714,3.00285714 13.3085714,6.70571429 C13.3085714,10.4085714 10.3285714,13.4171429 6.65428571,13.4171429 Z M31.7942857,37.38 C31.7942857,42.98 31.7942857,56.4628571 31.7942857,56.4628571 L21,56.4628571 L21,20.1114286 L31.7942857,20.1114286 L31.7942857,25.0057143 C31.7942857,25.0057143 35.0371429,19 42.7485714,19 C50.4571429,19 55.9771429,23.7085714 55.9771429,33.4457143 C55.9771429,43.1828571 55.9771429,56.4628571 55.9771429,56.4628571 L44.7771429,56.4628571 C44.7771429,56.4628571 44.7771429,42.6171429 44.7771429,37.38 C44.7771429,32.1485714 42.7885714,29.2257143 38.6514286,29.2257143 C34.1457143,29.2257143 31.7942857,32.2714286 31.7942857,37.38 Z" id="Combined-Shape"></path>
            </g>
        </g>
    </g>
</svg>